<mxfile host="app.diagrams.net" agent="Mozilla/5.0 (Windows NT 10.0; Win64; x64) AppleWebKit/537.36 (KHTML, like Gecko) Chrome/141.0.0.0 Safari/537.36" version="28.2.8">
  <diagram name="PÃ¡gina-1" id="fgxuYLf96tdxHnqkJ4XO">
    <mxGraphModel grid="1" page="1" gridSize="10" guides="1" tooltips="1" connect="1" arrows="1" fold="1" pageScale="1" pageWidth="827" pageHeight="1169" math="0" shadow="0">
      <root>
        <mxCell id="0" />
        <mxCell id="1" parent="0" />
        <mxCell id="ttNRmHuyOTHg3bWWSKDB-1" value="&lt;font style=&quot;vertical-align: inherit;&quot; dir=&quot;auto&quot;&gt;&lt;font style=&quot;vertical-align: inherit; font-size: 20px;&quot; dir=&quot;auto&quot;&gt;usuario&lt;/font&gt;&lt;/font&gt;" style="rounded=0;whiteSpace=wrap;html=1;fontStyle=0;labelBackgroundColor=none;fillColor=#182E3E;strokeColor=#FFFFFF;fontColor=#FFFFFF;" vertex="1" parent="1">
          <mxGeometry x="169.5" y="232" width="120" height="60" as="geometry" />
        </mxCell>
        <mxCell id="ttNRmHuyOTHg3bWWSKDB-2" value="&lt;font style=&quot;vertical-align: inherit;&quot; dir=&quot;auto&quot;&gt;&lt;font style=&quot;vertical-align: inherit; font-size: 15px;&quot; dir=&quot;auto&quot;&gt;&lt;font style=&quot;vertical-align: inherit;&quot; dir=&quot;auto&quot;&gt;&lt;font style=&quot;vertical-align: inherit;&quot; dir=&quot;auto&quot;&gt;id_usuario&lt;/font&gt;&lt;/font&gt;&lt;/font&gt;&lt;/font&gt;" style="ellipse;whiteSpace=wrap;html=1;align=center;fontStyle=4;labelBackgroundColor=none;fillColor=#182E3E;strokeColor=#FFFFFF;fontColor=#FFFFFF;" vertex="1" parent="1">
          <mxGeometry x="30.5" y="242" width="100" height="40" as="geometry" />
        </mxCell>
        <mxCell id="ttNRmHuyOTHg3bWWSKDB-41" style="edgeStyle=none;rounded=0;orthogonalLoop=1;jettySize=auto;html=1;entryX=0.093;entryY=1.014;entryDx=0;entryDy=0;entryPerimeter=0;labelBackgroundColor=none;strokeColor=#23445D;fontColor=default;" edge="1" parent="1" target="ttNRmHuyOTHg3bWWSKDB-1">
          <mxGeometry relative="1" as="geometry">
            <mxPoint x="184.58000000000004" y="292" as="targetPoint" />
            <mxPoint x="109.5" y="322" as="sourcePoint" />
            <Array as="points">
              <mxPoint x="181" y="322" />
            </Array>
          </mxGeometry>
        </mxCell>
        <mxCell id="ttNRmHuyOTHg3bWWSKDB-3" value="&lt;font style=&quot;vertical-align: inherit;&quot; dir=&quot;auto&quot;&gt;&lt;font style=&quot;vertical-align: inherit; font-size: 15px;&quot; dir=&quot;auto&quot;&gt;Nome&lt;/font&gt;&lt;/font&gt;" style="ellipse;whiteSpace=wrap;html=1;align=center;labelBackgroundColor=none;fillColor=#182E3E;strokeColor=#FFFFFF;fontColor=#FFFFFF;" vertex="1" parent="1">
          <mxGeometry x="30.5" y="302" width="100" height="40" as="geometry" />
        </mxCell>
        <mxCell id="ttNRmHuyOTHg3bWWSKDB-4" value="&lt;font style=&quot;vertical-align: inherit;&quot; dir=&quot;auto&quot;&gt;&lt;font style=&quot;vertical-align: inherit; font-size: 15px;&quot; dir=&quot;auto&quot;&gt;senha_hash&lt;/font&gt;&lt;/font&gt;" style="ellipse;whiteSpace=wrap;html=1;align=center;labelBackgroundColor=none;fillColor=#182E3E;strokeColor=#FFFFFF;fontColor=#FFFFFF;" vertex="1" parent="1">
          <mxGeometry x="29.5" y="362" width="100" height="40" as="geometry" />
        </mxCell>
        <mxCell id="ttNRmHuyOTHg3bWWSKDB-5" value="&lt;font style=&quot;vertical-align: inherit;&quot; dir=&quot;auto&quot;&gt;&lt;font style=&quot;vertical-align: inherit; font-size: 15px;&quot; dir=&quot;auto&quot;&gt;tipo_usuario&lt;/font&gt;&lt;/font&gt;" style="ellipse;whiteSpace=wrap;html=1;align=center;labelBackgroundColor=none;fillColor=#182E3E;strokeColor=#FFFFFF;fontColor=#FFFFFF;" vertex="1" parent="1">
          <mxGeometry x="30.5" y="182" width="100" height="40" as="geometry" />
        </mxCell>
        <mxCell id="ttNRmHuyOTHg3bWWSKDB-9" value="&lt;font style=&quot;vertical-align: inherit;&quot; dir=&quot;auto&quot;&gt;&lt;font style=&quot;vertical-align: inherit; font-size: 15px;&quot; dir=&quot;auto&quot;&gt;email&lt;/font&gt;&lt;/font&gt;" style="ellipse;whiteSpace=wrap;html=1;align=center;labelBackgroundColor=none;fillColor=#182E3E;strokeColor=#FFFFFF;fontColor=#FFFFFF;" vertex="1" parent="1">
          <mxGeometry x="30.5" y="122" width="100" height="40" as="geometry" />
        </mxCell>
        <mxCell id="ttNRmHuyOTHg3bWWSKDB-15" style="edgeStyle=orthogonalEdgeStyle;rounded=0;orthogonalLoop=1;jettySize=auto;html=1;entryX=0.25;entryY=0;entryDx=0;entryDy=0;exitX=1;exitY=0.5;exitDx=0;exitDy=0;labelBackgroundColor=none;strokeColor=#23445D;fontColor=default;" edge="1" parent="1" source="ttNRmHuyOTHg3bWWSKDB-9" target="ttNRmHuyOTHg3bWWSKDB-1">
          <mxGeometry relative="1" as="geometry">
            <mxPoint x="199.5" y="132" as="sourcePoint" />
            <Array as="points">
              <mxPoint x="199" y="142" />
              <mxPoint x="199" y="172" />
              <mxPoint x="200" y="172" />
            </Array>
          </mxGeometry>
        </mxCell>
        <mxCell id="ttNRmHuyOTHg3bWWSKDB-10" value="" style="line;strokeWidth=1;rotatable=0;dashed=0;labelPosition=right;align=left;verticalAlign=middle;spacingTop=0;spacingLeft=6;points=[];portConstraint=eastwest;labelBackgroundColor=none;fillColor=#182E3E;strokeColor=#FFFFFF;fontColor=#FFFFFF;" vertex="1" parent="1">
          <mxGeometry x="130" y="137" width="69.5" height="10" as="geometry" />
        </mxCell>
        <mxCell id="ttNRmHuyOTHg3bWWSKDB-38" value="" style="endArrow=classic;html=1;rounded=0;entryX=0.167;entryY=0;entryDx=0;entryDy=0;entryPerimeter=0;labelBackgroundColor=none;strokeColor=#23445D;fontColor=default;" edge="1" parent="1">
          <mxGeometry width="50" height="50" relative="1" as="geometry">
            <mxPoint x="130" y="202" as="sourcePoint" />
            <mxPoint x="179.53999999999996" y="232" as="targetPoint" />
            <Array as="points">
              <mxPoint x="179.5" y="202" />
              <mxPoint x="179.5" y="212" />
            </Array>
          </mxGeometry>
        </mxCell>
        <mxCell id="ttNRmHuyOTHg3bWWSKDB-45" value="&lt;font style=&quot;vertical-align: inherit;&quot; dir=&quot;auto&quot;&gt;&lt;font style=&quot;vertical-align: inherit; font-size: 15px;&quot; dir=&quot;auto&quot;&gt;Produto&lt;/font&gt;&lt;/font&gt;" style="rounded=0;whiteSpace=wrap;html=1;labelBackgroundColor=none;fillColor=#182E3E;strokeColor=#FFFFFF;fontColor=#FFFFFF;" vertex="1" parent="1">
          <mxGeometry x="360" y="812" width="120" height="60" as="geometry" />
        </mxCell>
        <mxCell id="ttNRmHuyOTHg3bWWSKDB-46" value="&lt;font style=&quot;vertical-align: inherit;&quot; dir=&quot;auto&quot;&gt;&lt;font style=&quot;vertical-align: inherit; font-size: 15px;&quot; dir=&quot;auto&quot;&gt;Nome&lt;/font&gt;&lt;/font&gt;" style="ellipse;whiteSpace=wrap;html=1;align=center;labelBackgroundColor=none;fillColor=#182E3E;strokeColor=#FFFFFF;fontColor=#FFFFFF;" vertex="1" parent="1">
          <mxGeometry x="230" y="933" width="100" height="40" as="geometry" />
        </mxCell>
        <mxCell id="ttNRmHuyOTHg3bWWSKDB-47" value="&lt;font style=&quot;font-size: 15px;&quot;&gt;Imagem&lt;/font&gt;" style="ellipse;whiteSpace=wrap;html=1;align=center;labelBackgroundColor=none;fillColor=#182E3E;strokeColor=#FFFFFF;fontColor=#FFFFFF;" vertex="1" parent="1">
          <mxGeometry x="520" y="933" width="100" height="40" as="geometry" />
        </mxCell>
        <mxCell id="ttNRmHuyOTHg3bWWSKDB-48" value="&lt;font style=&quot;font-size: 15px;&quot;&gt;Estoque&lt;/font&gt;" style="ellipse;whiteSpace=wrap;html=1;align=center;labelBackgroundColor=none;fillColor=#182E3E;strokeColor=#FFFFFF;fontColor=#FFFFFF;" vertex="1" parent="1">
          <mxGeometry x="520" y="882" width="100" height="40" as="geometry" />
        </mxCell>
        <mxCell id="ttNRmHuyOTHg3bWWSKDB-49" value="&lt;font style=&quot;font-size: 15px;&quot;&gt;Descricao&lt;/font&gt;" style="ellipse;whiteSpace=wrap;html=1;align=center;labelBackgroundColor=none;fillColor=#182E3E;strokeColor=#FFFFFF;fontColor=#FFFFFF;" vertex="1" parent="1">
          <mxGeometry x="520" y="983" width="100" height="40" as="geometry" />
        </mxCell>
        <mxCell id="ttNRmHuyOTHg3bWWSKDB-50" value="&lt;span style=&quot;font-size: 15px;&quot;&gt;Preco&lt;/span&gt;" style="ellipse;whiteSpace=wrap;html=1;align=center;labelBackgroundColor=none;fillColor=#182E3E;strokeColor=#FFFFFF;fontColor=#FFFFFF;" vertex="1" parent="1">
          <mxGeometry x="230" y="882" width="100" height="40" as="geometry" />
        </mxCell>
        <mxCell id="ttNRmHuyOTHg3bWWSKDB-51" value="&lt;font style=&quot;font-size: 15px;&quot;&gt;Categoria_id&lt;/font&gt;" style="ellipse;whiteSpace=wrap;html=1;align=center;labelBackgroundColor=none;fillColor=#182E3E;strokeColor=#FFFFFF;fontColor=#FFFFFF;" vertex="1" parent="1">
          <mxGeometry x="230" y="984" width="100" height="40" as="geometry" />
        </mxCell>
        <mxCell id="ttNRmHuyOTHg3bWWSKDB-52" value="&lt;font style=&quot;font-size: 15px;&quot;&gt;id_Produto&lt;/font&gt;" style="ellipse;whiteSpace=wrap;html=1;align=center;fontStyle=4;labelBackgroundColor=none;fillColor=#182E3E;strokeColor=#FFFFFF;fontColor=#FFFFFF;" vertex="1" parent="1">
          <mxGeometry x="370" y="933" width="100" height="40" as="geometry" />
        </mxCell>
        <mxCell id="tSSdupHxOlG0WjbJKAfs-1" value="&lt;font style=&quot;font-size: 15px;&quot;&gt;Categoria&lt;/font&gt;" style="rounded=0;whiteSpace=wrap;html=1;labelBackgroundColor=none;fillColor=#182E3E;strokeColor=#FFFFFF;fontColor=#FFFFFF;" vertex="1" parent="1">
          <mxGeometry x="169.5" y="589" width="120" height="60" as="geometry" />
        </mxCell>
        <mxCell id="tSSdupHxOlG0WjbJKAfs-2" value="&lt;font style=&quot;font-size: 15px;&quot;&gt;Nome&lt;/font&gt;" style="ellipse;whiteSpace=wrap;html=1;align=center;labelBackgroundColor=none;fillColor=#182E3E;strokeColor=#FFFFFF;fontColor=#FFFFFF;" vertex="1" parent="1">
          <mxGeometry x="30.5" y="538" width="100" height="40" as="geometry" />
        </mxCell>
        <mxCell id="tSSdupHxOlG0WjbJKAfs-3" value="&lt;font style=&quot;font-size: 15px;&quot;&gt;Desacricao&lt;/font&gt;" style="ellipse;whiteSpace=wrap;html=1;align=center;labelBackgroundColor=none;fillColor=#182E3E;strokeColor=#FFFFFF;fontColor=#FFFFFF;" vertex="1" parent="1">
          <mxGeometry x="30" y="658" width="100" height="40" as="geometry" />
        </mxCell>
        <mxCell id="tSSdupHxOlG0WjbJKAfs-4" value="&lt;font style=&quot;font-size: 15px;&quot;&gt;id_categoria&lt;/font&gt;" style="ellipse;whiteSpace=wrap;html=1;align=center;fontStyle=4;labelBackgroundColor=none;fillColor=#182E3E;strokeColor=#FFFFFF;fontColor=#FFFFFF;" vertex="1" parent="1">
          <mxGeometry x="30.5" y="599" width="100" height="40" as="geometry" />
        </mxCell>
        <mxCell id="tSSdupHxOlG0WjbJKAfs-5" value="" style="endArrow=classic;html=1;rounded=0;entryX=0.255;entryY=1.014;entryDx=0;entryDy=0;entryPerimeter=0;labelBackgroundColor=none;strokeColor=#23445D;fontColor=default;" edge="1" parent="1" target="ttNRmHuyOTHg3bWWSKDB-1">
          <mxGeometry width="50" height="50" relative="1" as="geometry">
            <mxPoint x="130" y="382" as="sourcePoint" />
            <mxPoint x="209.5" y="292" as="targetPoint" />
            <Array as="points">
              <mxPoint x="200" y="382" />
            </Array>
          </mxGeometry>
        </mxCell>
        <mxCell id="tSSdupHxOlG0WjbJKAfs-7" value="" style="endArrow=classic;html=1;rounded=0;entryX=0;entryY=0.5;entryDx=0;entryDy=0;exitX=1;exitY=0.5;exitDx=0;exitDy=0;labelBackgroundColor=none;strokeColor=#23445D;fontColor=default;" edge="1" parent="1" source="tSSdupHxOlG0WjbJKAfs-4">
          <mxGeometry width="50" height="50" relative="1" as="geometry">
            <mxPoint x="139.5" y="618.88" as="sourcePoint" />
            <mxPoint x="169.5" y="618.88" as="targetPoint" />
          </mxGeometry>
        </mxCell>
        <mxCell id="tSSdupHxOlG0WjbJKAfs-11" value="&lt;font style=&quot;font-size: 15px;&quot;&gt;Pedido&lt;/font&gt;" style="rounded=0;whiteSpace=wrap;html=1;labelBackgroundColor=none;fillColor=#182E3E;strokeColor=#FFFFFF;fontColor=#FFFFFF;" vertex="1" parent="1">
          <mxGeometry x="549" y="222" width="120" height="60" as="geometry" />
        </mxCell>
        <mxCell id="tSSdupHxOlG0WjbJKAfs-12" value="&lt;font style=&quot;font-size: 15px;&quot;&gt;id_pedido&lt;/font&gt;" style="ellipse;whiteSpace=wrap;html=1;align=center;fontStyle=4;labelBackgroundColor=none;fillColor=#182E3E;strokeColor=#FFFFFF;fontColor=#FFFFFF;" vertex="1" parent="1">
          <mxGeometry x="699" y="302" width="100" height="40" as="geometry" />
        </mxCell>
        <mxCell id="tSSdupHxOlG0WjbJKAfs-13" value="&lt;font style=&quot;font-size: 15px;&quot;&gt;data_pedido&lt;/font&gt;" style="ellipse;whiteSpace=wrap;html=1;align=center;labelBackgroundColor=none;fillColor=#182E3E;strokeColor=#FFFFFF;fontColor=#FFFFFF;" vertex="1" parent="1">
          <mxGeometry x="699" y="182" width="100" height="40" as="geometry" />
        </mxCell>
        <mxCell id="tSSdupHxOlG0WjbJKAfs-14" value="&lt;font style=&quot;font-size: 15px;&quot;&gt;id_usuario&lt;/font&gt;" style="ellipse;whiteSpace=wrap;html=1;align=center;labelBackgroundColor=none;fillColor=#182E3E;strokeColor=#FFFFFF;fontColor=#FFFFFF;" vertex="1" parent="1">
          <mxGeometry x="699" y="361" width="100" height="40" as="geometry" />
        </mxCell>
        <mxCell id="tSSdupHxOlG0WjbJKAfs-15" value="&lt;font style=&quot;font-size: 15px;&quot;&gt;status&lt;/font&gt;" style="ellipse;whiteSpace=wrap;html=1;align=center;labelBackgroundColor=none;fillColor=#182E3E;strokeColor=#FFFFFF;fontColor=#FFFFFF;" vertex="1" parent="1">
          <mxGeometry x="699" y="122" width="100" height="40" as="geometry" />
        </mxCell>
        <mxCell id="tSSdupHxOlG0WjbJKAfs-17" value="" style="endArrow=classic;html=1;rounded=0;exitX=0.001;exitY=0.525;exitDx=0;exitDy=0;exitPerimeter=0;labelBackgroundColor=none;strokeColor=#23445D;fontColor=default;" edge="1" parent="1" source="tSSdupHxOlG0WjbJKAfs-14">
          <mxGeometry width="50" height="50" relative="1" as="geometry">
            <mxPoint x="679.0000000000001" y="381" as="sourcePoint" />
            <mxPoint x="639" y="282" as="targetPoint" />
            <Array as="points">
              <mxPoint x="639" y="382" />
            </Array>
          </mxGeometry>
        </mxCell>
        <mxCell id="tSSdupHxOlG0WjbJKAfs-21" value="" style="endArrow=classic;html=1;rounded=0;exitX=0;exitY=0.5;exitDx=0;exitDy=0;entryX=0.917;entryY=0;entryDx=0;entryDy=0;entryPerimeter=0;labelBackgroundColor=none;strokeColor=#23445D;fontColor=default;" edge="1" parent="1" source="tSSdupHxOlG0WjbJKAfs-13" target="tSSdupHxOlG0WjbJKAfs-11">
          <mxGeometry width="50" height="50" relative="1" as="geometry">
            <mxPoint x="669" y="262" as="sourcePoint" />
            <mxPoint x="669" y="225" as="targetPoint" />
            <Array as="points">
              <mxPoint x="659" y="202" />
            </Array>
          </mxGeometry>
        </mxCell>
        <mxCell id="tSSdupHxOlG0WjbJKAfs-22" value="" style="endArrow=classic;html=1;rounded=0;entryX=0.912;entryY=1.048;entryDx=0;entryDy=0;exitX=0;exitY=0.5;exitDx=0;exitDy=0;entryPerimeter=0;labelBackgroundColor=none;strokeColor=#23445D;fontColor=default;" edge="1" parent="1" source="tSSdupHxOlG0WjbJKAfs-12" target="tSSdupHxOlG0WjbJKAfs-11">
          <mxGeometry width="50" height="50" relative="1" as="geometry">
            <mxPoint x="739" y="362" as="sourcePoint" />
            <mxPoint x="789" y="312" as="targetPoint" />
            <Array as="points">
              <mxPoint x="659" y="322" />
            </Array>
          </mxGeometry>
        </mxCell>
        <mxCell id="tSSdupHxOlG0WjbJKAfs-26" value="" style="endArrow=classic;html=1;rounded=0;exitX=0;exitY=0.5;exitDx=0;exitDy=0;entryX=0.75;entryY=0;entryDx=0;entryDy=0;labelBackgroundColor=none;strokeColor=#23445D;fontColor=default;" edge="1" parent="1" source="tSSdupHxOlG0WjbJKAfs-15" target="tSSdupHxOlG0WjbJKAfs-11">
          <mxGeometry width="50" height="50" relative="1" as="geometry">
            <mxPoint x="519" y="302" as="sourcePoint" />
            <mxPoint x="655" y="222" as="targetPoint" />
            <Array as="points">
              <mxPoint x="639" y="142" />
            </Array>
          </mxGeometry>
        </mxCell>
        <mxCell id="q0kV-PVxu47dabKwW5p2-1" value="&lt;font style=&quot;&quot;&gt;&lt;font style=&quot;vertical-align: inherit;&quot; dir=&quot;auto&quot;&gt;&lt;font style=&quot;vertical-align: inherit; font-size: 15px;&quot; dir=&quot;auto&quot;&gt;Item_pedido&lt;/font&gt;&lt;/font&gt;&lt;/font&gt;" style="rounded=0;whiteSpace=wrap;html=1;labelBackgroundColor=none;fillColor=#182E3E;strokeColor=#FFFFFF;fontColor=#FFFFFF;" vertex="1" parent="1">
          <mxGeometry x="540" y="582" width="120" height="60" as="geometry" />
        </mxCell>
        <mxCell id="q0kV-PVxu47dabKwW5p2-3" value="&lt;font style=&quot;vertical-align: inherit;&quot; dir=&quot;auto&quot;&gt;&lt;font style=&quot;vertical-align: inherit; font-size: 15px;&quot; dir=&quot;auto&quot;&gt;&lt;font style=&quot;vertical-align: inherit;&quot; dir=&quot;auto&quot;&gt;&lt;font style=&quot;vertical-align: inherit;&quot; dir=&quot;auto&quot;&gt;id_pedido &lt;/font&gt;&lt;/font&gt;&lt;/font&gt;&lt;/font&gt;" style="ellipse;whiteSpace=wrap;html=1;align=center;labelBackgroundColor=none;fillColor=#182E3E;strokeColor=#FFFFFF;fontColor=#FFFFFF;" vertex="1" parent="1">
          <mxGeometry x="700" y="652" width="100" height="40" as="geometry" />
        </mxCell>
        <mxCell id="q0kV-PVxu47dabKwW5p2-4" value="&lt;font style=&quot;vertical-align: inherit;&quot; dir=&quot;auto&quot;&gt;&lt;font style=&quot;vertical-align: inherit; font-size: 15px;&quot; dir=&quot;auto&quot;&gt;&lt;font style=&quot;vertical-align: inherit;&quot; dir=&quot;auto&quot;&gt;&lt;font style=&quot;vertical-align: inherit;&quot; dir=&quot;auto&quot;&gt;&lt;font style=&quot;vertical-align: inherit;&quot; dir=&quot;auto&quot;&gt;&lt;font style=&quot;vertical-align: inherit;&quot; dir=&quot;auto&quot;&gt;id_produto&lt;/font&gt;&lt;/font&gt;&lt;/font&gt;&lt;/font&gt;&lt;/font&gt;&lt;/font&gt;" style="ellipse;whiteSpace=wrap;html=1;align=center;labelBackgroundColor=none;fillColor=#182E3E;strokeColor=#FFFFFF;fontColor=#FFFFFF;" vertex="1" parent="1">
          <mxGeometry x="700" y="532" width="100" height="40" as="geometry" />
        </mxCell>
        <mxCell id="q0kV-PVxu47dabKwW5p2-5" value="&lt;font style=&quot;vertical-align: inherit;&quot; dir=&quot;auto&quot;&gt;&lt;font style=&quot;vertical-align: inherit; font-size: 15px;&quot; dir=&quot;auto&quot;&gt;&lt;font style=&quot;vertical-align: inherit;&quot; dir=&quot;auto&quot;&gt;&lt;font style=&quot;vertical-align: inherit;&quot; dir=&quot;auto&quot;&gt;&lt;font style=&quot;vertical-align: inherit;&quot; dir=&quot;auto&quot;&gt;&lt;font style=&quot;vertical-align: inherit;&quot; dir=&quot;auto&quot;&gt;&lt;font style=&quot;vertical-align: inherit;&quot; dir=&quot;auto&quot;&gt;&lt;font style=&quot;vertical-align: inherit;&quot; dir=&quot;auto&quot;&gt;&lt;font style=&quot;vertical-align: inherit;&quot; dir=&quot;auto&quot;&gt;&lt;font style=&quot;vertical-align: inherit;&quot; dir=&quot;auto&quot;&gt;preco_unitario&lt;/font&gt;&lt;/font&gt;&lt;/font&gt;&lt;/font&gt;&lt;/font&gt;&lt;/font&gt;&lt;/font&gt;&lt;/font&gt;&lt;/font&gt;&lt;/font&gt;" style="ellipse;whiteSpace=wrap;html=1;align=center;labelBackgroundColor=none;fillColor=#182E3E;strokeColor=#FFFFFF;fontColor=#FFFFFF;" vertex="1" parent="1">
          <mxGeometry x="700" y="472" width="100" height="40" as="geometry" />
        </mxCell>
        <mxCell id="q0kV-PVxu47dabKwW5p2-6" value="&lt;font style=&quot;vertical-align: inherit;&quot; dir=&quot;auto&quot;&gt;&lt;font style=&quot;vertical-align: inherit; font-size: 15px;&quot; dir=&quot;auto&quot;&gt;&lt;font style=&quot;vertical-align: inherit;&quot; dir=&quot;auto&quot;&gt;&lt;font style=&quot;vertical-align: inherit;&quot; dir=&quot;auto&quot;&gt;&lt;font style=&quot;vertical-align: inherit;&quot; dir=&quot;auto&quot;&gt;&lt;font style=&quot;vertical-align: inherit;&quot; dir=&quot;auto&quot;&gt;&lt;font style=&quot;vertical-align: inherit;&quot; dir=&quot;auto&quot;&gt;&lt;font style=&quot;vertical-align: inherit;&quot; dir=&quot;auto&quot;&gt;quantidade&lt;/font&gt;&lt;/font&gt;&lt;/font&gt;&lt;/font&gt;&lt;/font&gt;&lt;/font&gt;&lt;/font&gt;&lt;/font&gt;" style="ellipse;whiteSpace=wrap;html=1;align=center;labelBackgroundColor=none;fillColor=#182E3E;strokeColor=#FFFFFF;fontColor=#FFFFFF;" vertex="1" parent="1">
          <mxGeometry x="700" y="712" width="100" height="40" as="geometry" />
        </mxCell>
        <mxCell id="q0kV-PVxu47dabKwW5p2-8" value="&lt;font style=&quot;vertical-align: inherit;&quot; dir=&quot;auto&quot;&gt;&lt;font style=&quot;vertical-align: inherit; font-size: 15px;&quot; dir=&quot;auto&quot;&gt;id_item &lt;/font&gt;&lt;/font&gt;" style="ellipse;whiteSpace=wrap;html=1;align=center;fontStyle=4;labelBackgroundColor=none;fillColor=#182E3E;strokeColor=#FFFFFF;fontColor=#FFFFFF;" vertex="1" parent="1">
          <mxGeometry x="700" y="592" width="100" height="40" as="geometry" />
        </mxCell>
        <mxCell id="q0kV-PVxu47dabKwW5p2-13" value="" style="endArrow=classic;html=1;rounded=0;entryX=0.93;entryY=0.004;entryDx=0;entryDy=0;entryPerimeter=0;labelBackgroundColor=none;strokeColor=#23445D;fontColor=default;" edge="1" parent="1" target="q0kV-PVxu47dabKwW5p2-1">
          <mxGeometry width="50" height="50" relative="1" as="geometry">
            <mxPoint x="700" y="552" as="sourcePoint" />
            <mxPoint x="860" y="595" as="targetPoint" />
            <Array as="points">
              <mxPoint x="652" y="552" />
            </Array>
          </mxGeometry>
        </mxCell>
        <mxCell id="q0kV-PVxu47dabKwW5p2-14" value="" style="endArrow=classic;html=1;rounded=0;entryX=0.75;entryY=0;entryDx=0;entryDy=0;labelBackgroundColor=none;strokeColor=#23445D;fontColor=default;" edge="1" parent="1" target="q0kV-PVxu47dabKwW5p2-1">
          <mxGeometry width="50" height="50" relative="1" as="geometry">
            <mxPoint x="700" y="492" as="sourcePoint" />
            <mxPoint x="770" y="535" as="targetPoint" />
            <Array as="points">
              <mxPoint x="630" y="492" />
            </Array>
          </mxGeometry>
        </mxCell>
        <mxCell id="q0kV-PVxu47dabKwW5p2-15" value="" style="endArrow=classic;html=1;rounded=0;exitX=0;exitY=0.5;exitDx=0;exitDy=0;entryX=0.914;entryY=1.005;entryDx=0;entryDy=0;entryPerimeter=0;labelBackgroundColor=none;strokeColor=#23445D;fontColor=default;" edge="1" parent="1" source="q0kV-PVxu47dabKwW5p2-3" target="q0kV-PVxu47dabKwW5p2-1">
          <mxGeometry width="50" height="50" relative="1" as="geometry">
            <mxPoint x="670" y="668" as="sourcePoint" />
            <mxPoint x="650" y="646" as="targetPoint" />
            <Array as="points">
              <mxPoint x="650" y="672" />
              <mxPoint x="650" y="652" />
            </Array>
          </mxGeometry>
        </mxCell>
        <mxCell id="q0kV-PVxu47dabKwW5p2-17" value="" style="endArrow=classic;html=1;rounded=0;entryX=0.75;entryY=1;entryDx=0;entryDy=0;exitX=0;exitY=0.5;exitDx=0;exitDy=0;labelBackgroundColor=none;strokeColor=#23445D;fontColor=default;" edge="1" parent="1" source="q0kV-PVxu47dabKwW5p2-6" target="q0kV-PVxu47dabKwW5p2-1">
          <mxGeometry width="50" height="50" relative="1" as="geometry">
            <mxPoint x="670" y="715" as="sourcePoint" />
            <mxPoint x="840" y="785" as="targetPoint" />
            <Array as="points">
              <mxPoint x="630" y="732" />
            </Array>
          </mxGeometry>
        </mxCell>
        <mxCell id="q0kV-PVxu47dabKwW5p2-20" value="" style="endArrow=classic;html=1;rounded=0;exitX=0;exitY=0.5;exitDx=0;exitDy=0;entryX=1;entryY=0.5;entryDx=0;entryDy=0;labelBackgroundColor=none;strokeColor=#23445D;fontColor=default;" edge="1" parent="1" source="q0kV-PVxu47dabKwW5p2-8" target="q0kV-PVxu47dabKwW5p2-1">
          <mxGeometry width="50" height="50" relative="1" as="geometry">
            <mxPoint x="770" y="625" as="sourcePoint" />
            <mxPoint x="820" y="575" as="targetPoint" />
            <Array as="points" />
          </mxGeometry>
        </mxCell>
        <mxCell id="q0kV-PVxu47dabKwW5p2-23" value="" style="endArrow=classic;html=1;rounded=0;exitX=0.899;exitY=0.205;exitDx=0;exitDy=0;exitPerimeter=0;entryX=-0.001;entryY=0.328;entryDx=0;entryDy=0;entryPerimeter=0;labelBackgroundColor=none;strokeColor=#23445D;fontColor=default;" edge="1" parent="1" source="ttNRmHuyOTHg3bWWSKDB-50" target="ttNRmHuyOTHg3bWWSKDB-45">
          <mxGeometry width="50" height="50" relative="1" as="geometry">
            <mxPoint x="340" y="922" as="sourcePoint" />
            <mxPoint x="360" y="852" as="targetPoint" />
            <Array as="points">
              <mxPoint x="320" y="832" />
            </Array>
          </mxGeometry>
        </mxCell>
        <mxCell id="q0kV-PVxu47dabKwW5p2-24" value="" style="endArrow=classic;html=1;rounded=0;exitX=0.918;exitY=0.223;exitDx=0;exitDy=0;exitPerimeter=0;entryX=0;entryY=0.664;entryDx=0;entryDy=0;entryPerimeter=0;labelBackgroundColor=none;strokeColor=#23445D;fontColor=default;" edge="1" parent="1" source="ttNRmHuyOTHg3bWWSKDB-46" target="ttNRmHuyOTHg3bWWSKDB-45">
          <mxGeometry width="50" height="50" relative="1" as="geometry">
            <mxPoint x="320" y="952" as="sourcePoint" />
            <mxPoint x="370" y="902" as="targetPoint" />
            <Array as="points">
              <mxPoint x="340" y="942" />
              <mxPoint x="340" y="852" />
            </Array>
          </mxGeometry>
        </mxCell>
        <mxCell id="q0kV-PVxu47dabKwW5p2-25" value="" style="endArrow=classic;html=1;rounded=0;entryX=0;entryY=1;entryDx=0;entryDy=0;labelBackgroundColor=none;strokeColor=#23445D;fontColor=default;" edge="1" parent="1" target="ttNRmHuyOTHg3bWWSKDB-45">
          <mxGeometry width="50" height="50" relative="1" as="geometry">
            <mxPoint x="330" y="1002" as="sourcePoint" />
            <mxPoint x="370" y="952" as="targetPoint" />
            <Array as="points">
              <mxPoint x="360" y="1002" />
            </Array>
          </mxGeometry>
        </mxCell>
        <mxCell id="q0kV-PVxu47dabKwW5p2-26" value="" style="endArrow=classic;html=1;rounded=0;entryX=0.5;entryY=1;entryDx=0;entryDy=0;exitX=0.5;exitY=0;exitDx=0;exitDy=0;labelBackgroundColor=none;strokeColor=#23445D;fontColor=default;" edge="1" parent="1" source="ttNRmHuyOTHg3bWWSKDB-52" target="ttNRmHuyOTHg3bWWSKDB-45">
          <mxGeometry width="50" height="50" relative="1" as="geometry">
            <mxPoint x="395" y="933" as="sourcePoint" />
            <mxPoint x="445" y="883" as="targetPoint" />
          </mxGeometry>
        </mxCell>
        <mxCell id="q0kV-PVxu47dabKwW5p2-28" value="" style="endArrow=classic;html=1;rounded=0;exitX=0.202;exitY=0.108;exitDx=0;exitDy=0;entryX=0.997;entryY=0.333;entryDx=0;entryDy=0;entryPerimeter=0;exitPerimeter=0;labelBackgroundColor=none;strokeColor=#23445D;fontColor=default;" edge="1" parent="1" source="ttNRmHuyOTHg3bWWSKDB-48" target="ttNRmHuyOTHg3bWWSKDB-45">
          <mxGeometry width="50" height="50" relative="1" as="geometry">
            <mxPoint x="510" y="892" as="sourcePoint" />
            <mxPoint x="560" y="842" as="targetPoint" />
            <Array as="points">
              <mxPoint x="540" y="832" />
            </Array>
          </mxGeometry>
        </mxCell>
        <mxCell id="q0kV-PVxu47dabKwW5p2-29" value="" style="endArrow=classic;html=1;rounded=0;entryX=1.008;entryY=0.661;entryDx=0;entryDy=0;entryPerimeter=0;exitX=0.08;exitY=0.229;exitDx=0;exitDy=0;exitPerimeter=0;labelBackgroundColor=none;strokeColor=#23445D;fontColor=default;" edge="1" parent="1" source="ttNRmHuyOTHg3bWWSKDB-47" target="ttNRmHuyOTHg3bWWSKDB-45">
          <mxGeometry width="50" height="50" relative="1" as="geometry">
            <mxPoint x="470" y="927" as="sourcePoint" />
            <mxPoint x="520" y="877" as="targetPoint" />
            <Array as="points">
              <mxPoint x="510" y="942" />
              <mxPoint x="510" y="852" />
            </Array>
          </mxGeometry>
        </mxCell>
        <mxCell id="q0kV-PVxu47dabKwW5p2-31" value="" style="endArrow=classic;html=1;rounded=0;exitX=0;exitY=0.5;exitDx=0;exitDy=0;entryX=1;entryY=1;entryDx=0;entryDy=0;labelBackgroundColor=none;strokeColor=#23445D;fontColor=default;" edge="1" parent="1" source="ttNRmHuyOTHg3bWWSKDB-49" target="ttNRmHuyOTHg3bWWSKDB-45">
          <mxGeometry width="50" height="50" relative="1" as="geometry">
            <mxPoint x="460" y="912" as="sourcePoint" />
            <mxPoint x="510" y="862" as="targetPoint" />
            <Array as="points">
              <mxPoint x="480" y="1003" />
            </Array>
          </mxGeometry>
        </mxCell>
        <mxCell id="q0kV-PVxu47dabKwW5p2-35" value="" style="endArrow=classic;html=1;rounded=0;entryX=0;entryY=0.5;entryDx=0;entryDy=0;exitX=1;exitY=0.5;exitDx=0;exitDy=0;labelBackgroundColor=none;strokeColor=#23445D;fontColor=default;" edge="1" parent="1" source="ttNRmHuyOTHg3bWWSKDB-2" target="ttNRmHuyOTHg3bWWSKDB-1">
          <mxGeometry width="50" height="50" relative="1" as="geometry">
            <mxPoint x="110" y="292" as="sourcePoint" />
            <mxPoint x="160" y="242" as="targetPoint" />
          </mxGeometry>
        </mxCell>
        <mxCell id="q0kV-PVxu47dabKwW5p2-39" value="" style="endArrow=classic;html=1;rounded=0;entryX=0.167;entryY=0;entryDx=0;entryDy=0;entryPerimeter=0;exitX=1;exitY=0.5;exitDx=0;exitDy=0;labelBackgroundColor=none;strokeColor=#23445D;fontColor=default;" edge="1" parent="1" source="tSSdupHxOlG0WjbJKAfs-2">
          <mxGeometry width="50" height="50" relative="1" as="geometry">
            <mxPoint x="130.5" y="559" as="sourcePoint" />
            <mxPoint x="180.03999999999996" y="589" as="targetPoint" />
            <Array as="points">
              <mxPoint x="180" y="558" />
              <mxPoint x="180" y="569" />
            </Array>
          </mxGeometry>
        </mxCell>
        <mxCell id="q0kV-PVxu47dabKwW5p2-40" value="" style="endArrow=classic;html=1;rounded=0;entryX=0.087;entryY=1.009;entryDx=0;entryDy=0;entryPerimeter=0;exitX=1;exitY=0.5;exitDx=0;exitDy=0;labelBackgroundColor=none;strokeColor=#23445D;fontColor=default;" edge="1" parent="1" target="tSSdupHxOlG0WjbJKAfs-1">
          <mxGeometry width="50" height="50" relative="1" as="geometry">
            <mxPoint x="129.5" y="678" as="sourcePoint" />
            <mxPoint x="178.53999999999996" y="709" as="targetPoint" />
            <Array as="points">
              <mxPoint x="180" y="678" />
            </Array>
          </mxGeometry>
        </mxCell>
        <mxCell id="q0kV-PVxu47dabKwW5p2-43" style="edgeStyle=orthogonalEdgeStyle;rounded=0;orthogonalLoop=1;jettySize=auto;html=1;entryX=0;entryY=0.5;entryDx=0;entryDy=0;labelBackgroundColor=none;strokeColor=#23445D;fontColor=default;" edge="1" parent="1" source="q0kV-PVxu47dabKwW5p2-42" target="tSSdupHxOlG0WjbJKAfs-11">
          <mxGeometry relative="1" as="geometry" />
        </mxCell>
        <mxCell id="q0kV-PVxu47dabKwW5p2-45" style="edgeStyle=orthogonalEdgeStyle;rounded=0;orthogonalLoop=1;jettySize=auto;html=1;labelBackgroundColor=none;strokeColor=#23445D;fontColor=default;" edge="1" parent="1" source="q0kV-PVxu47dabKwW5p2-42">
          <mxGeometry relative="1" as="geometry">
            <mxPoint x="290" y="252" as="targetPoint" />
          </mxGeometry>
        </mxCell>
        <mxCell id="q0kV-PVxu47dabKwW5p2-42" value="&lt;font style=&quot;font-size: 14px;&quot;&gt;Relationship&lt;/font&gt;" style="shape=rhombus;perimeter=rhombusPerimeter;whiteSpace=wrap;html=1;align=center;labelBackgroundColor=none;fillColor=#182E3E;strokeColor=#FFFFFF;fontColor=#FFFFFF;" vertex="1" parent="1">
          <mxGeometry x="360" y="222" width="120" height="60" as="geometry" />
        </mxCell>
        <mxCell id="q0kV-PVxu47dabKwW5p2-46" value="&lt;font style=&quot;font-size: 14px;&quot;&gt;Relationship&lt;/font&gt;" style="shape=rhombus;perimeter=rhombusPerimeter;whiteSpace=wrap;html=1;align=center;labelBackgroundColor=none;fillColor=#182E3E;strokeColor=#FFFFFF;fontColor=#FFFFFF;" vertex="1" parent="1">
          <mxGeometry x="530" y="402" width="120" height="60" as="geometry" />
        </mxCell>
        <mxCell id="q0kV-PVxu47dabKwW5p2-47" style="edgeStyle=orthogonalEdgeStyle;rounded=0;orthogonalLoop=1;jettySize=auto;html=1;entryX=0.342;entryY=1.008;entryDx=0;entryDy=0;entryPerimeter=0;labelBackgroundColor=none;strokeColor=#23445D;fontColor=default;" edge="1" parent="1" source="q0kV-PVxu47dabKwW5p2-46" target="tSSdupHxOlG0WjbJKAfs-11">
          <mxGeometry relative="1" as="geometry" />
        </mxCell>
        <mxCell id="q0kV-PVxu47dabKwW5p2-48" style="edgeStyle=orthogonalEdgeStyle;rounded=0;orthogonalLoop=1;jettySize=auto;html=1;entryX=0.415;entryY=-0.006;entryDx=0;entryDy=0;entryPerimeter=0;labelBackgroundColor=none;strokeColor=#23445D;fontColor=default;" edge="1" parent="1" source="q0kV-PVxu47dabKwW5p2-46" target="q0kV-PVxu47dabKwW5p2-1">
          <mxGeometry relative="1" as="geometry" />
        </mxCell>
        <mxCell id="q0kV-PVxu47dabKwW5p2-51" style="edgeStyle=orthogonalEdgeStyle;rounded=0;orthogonalLoop=1;jettySize=auto;html=1;entryX=0.75;entryY=0;entryDx=0;entryDy=0;labelBackgroundColor=none;strokeColor=#23445D;fontColor=default;" edge="1" parent="1" source="q0kV-PVxu47dabKwW5p2-49" target="ttNRmHuyOTHg3bWWSKDB-45">
          <mxGeometry relative="1" as="geometry" />
        </mxCell>
        <mxCell id="q0kV-PVxu47dabKwW5p2-49" value="&lt;font style=&quot;font-size: 14px;&quot;&gt;Relationship&lt;/font&gt;" style="shape=rhombus;perimeter=rhombusPerimeter;whiteSpace=wrap;html=1;align=center;labelBackgroundColor=none;fillColor=#182E3E;strokeColor=#FFFFFF;fontColor=#FFFFFF;" vertex="1" parent="1">
          <mxGeometry x="490" y="702" width="120" height="60" as="geometry" />
        </mxCell>
        <mxCell id="q0kV-PVxu47dabKwW5p2-50" style="edgeStyle=orthogonalEdgeStyle;rounded=0;orthogonalLoop=1;jettySize=auto;html=1;labelBackgroundColor=none;strokeColor=#23445D;fontColor=default;" edge="1" parent="1" source="q0kV-PVxu47dabKwW5p2-49">
          <mxGeometry relative="1" as="geometry">
            <mxPoint x="550" y="642" as="targetPoint" />
            <Array as="points">
              <mxPoint x="550" y="642" />
            </Array>
          </mxGeometry>
        </mxCell>
        <mxCell id="q0kV-PVxu47dabKwW5p2-53" style="edgeStyle=orthogonalEdgeStyle;rounded=0;orthogonalLoop=1;jettySize=auto;html=1;entryX=0.25;entryY=0;entryDx=0;entryDy=0;labelBackgroundColor=none;strokeColor=#23445D;fontColor=default;" edge="1" parent="1" source="q0kV-PVxu47dabKwW5p2-52" target="ttNRmHuyOTHg3bWWSKDB-45">
          <mxGeometry relative="1" as="geometry" />
        </mxCell>
        <mxCell id="q0kV-PVxu47dabKwW5p2-54" style="edgeStyle=orthogonalEdgeStyle;rounded=0;orthogonalLoop=1;jettySize=auto;html=1;entryX=0.75;entryY=1;entryDx=0;entryDy=0;labelBackgroundColor=none;strokeColor=#23445D;fontColor=default;" edge="1" parent="1" source="q0kV-PVxu47dabKwW5p2-52" target="tSSdupHxOlG0WjbJKAfs-1">
          <mxGeometry relative="1" as="geometry" />
        </mxCell>
        <mxCell id="q0kV-PVxu47dabKwW5p2-52" value="&lt;font style=&quot;font-size: 14px;&quot;&gt;Relationship&lt;/font&gt;" style="shape=rhombus;perimeter=rhombusPerimeter;whiteSpace=wrap;html=1;align=center;labelBackgroundColor=none;fillColor=#182E3E;strokeColor=#FFFFFF;fontColor=#FFFFFF;" vertex="1" parent="1">
          <mxGeometry x="200" y="702" width="120" height="60" as="geometry" />
        </mxCell>
      </root>
    </mxGraphModel>
  </diagram>
</mxfile>
